<?xml version="1.0" standalone="no"?>
<!DOCTYPE svg PUBLIC "-//W3C//DTD SVG 20010904//EN"
 "http://www.w3.org/TR/2001/REC-SVG-20010904/DTD/svg10.dtd">
<svg version="1.0" xmlns="http://www.w3.org/2000/svg"
 width="95.000000pt" height="95.000000pt" viewBox="0 0 95.000000 95.000000"
 preserveAspectRatio="xMidYMid meet">
<metadata>
Created by potrace 1.14, written by Peter Selinger 2001-2017
</metadata>
<g transform="translate(0.000000,95.000000) scale(0.100000,-0.100000)"
fill="#000000" stroke="none">
<path d="M740 883 c-175 -31 -587 -115 -613 -125 -15 -6 -33 -20 -38 -31 -12
-22 -14 -74 -5 -105 5 -15 1 -21 -19 -26 -67 -17 -73 -174 -11 -294 22 -42 72
-74 109 -69 24 3 33 -2 52 -32 68 -107 139 -143 268 -136 100 6 281 45 333 72
101 52 143 201 120 418 -8 73 -56 272 -77 317 -13 29 -13 30 -119 11z m-42
-225 l71 -138 -30 0 c-26 0 -33 6 -46 39 -17 44 -33 54 -68 45 -25 -6 -35 -32
-31 -81 3 -26 -1 -32 -20 -36 -13 -2 -26 -2 -28 0 -3 3 -3 28 0 57 4 51 12
181 13 223 1 21 21 32 52 30 10 -1 43 -54 87 -139z m-212 71 c10 -29 9 -35 -4
-43 -10 -6 -17 -6 -19 0 -16 46 -30 59 -58 56 -45 -6 -55 -18 -49 -65 8 -61
31 -148 43 -160 6 -6 19 -6 38 0 25 9 28 14 26 51 -1 32 2 41 18 45 24 6 30
-3 32 -54 2 -54 -23 -74 -91 -78 -58 -2 -72 11 -91 84 -30 118 -21 185 27 204
71 27 110 15 128 -40z m-208 -121 c29 -29 3 -72 -35 -57 -35 13 -24 69 12 69
6 0 16 -5 23 -12z m556 4 c6 -10 -31 -59 -39 -51 -10 11 6 59 20 59 8 0 16 -4
19 -8z m24 -179 c27 -142 26 -133 2 -133 -12 0 -21 8 -25 23 -2 12 -12 58 -20
102 -9 44 -19 90 -22 103 -4 18 -1 22 19 22 23 0 26 -6 46 -117z m-748 65 c6
-24 22 -76 35 -117 26 -77 25 -91 -4 -91 -57 0 -115 167 -77 225 23 35 34 31
46 -17z m687 -140 c37 -73 67 -135 66 -138 -1 -3 -13 -6 -25 -8 -19 -2 -28 6
-46 43 -20 41 -24 45 -49 39 -42 -10 -43 -12 -43 -65 0 -36 -4 -49 -15 -50
-36 -4 -40 -3 -38 6 2 14 13 202 15 252 1 42 8 49 50 52 12 1 36 -37 85 -131z
m-285 93 c-8 -4 -45 -14 -83 -21 -39 -6 -72 -17 -75 -24 -2 -6 5 -57 16 -111
29 -136 30 -150 5 -150 -16 0 -22 14 -37 103 -26 144 -30 152 -73 152 -19 0
-35 4 -35 10 0 11 4 12 154 40 61 11 112 23 115 25 2 3 9 1 15 -5 8 -8 7 -13
-2 -19z m74 -20 c5 -31 20 -111 31 -161 1 -8 6 -40 9 -71 6 -54 5 -58 -20 -74
-15 -10 -49 -20 -76 -23 -42 -4 -50 -2 -64 20 -14 21 -72 276 -64 283 2 2 12
5 23 7 17 3 22 -9 43 -122 13 -69 30 -131 37 -139 11 -11 22 -12 47 -5 39 11
45 35 29 109 -6 28 -13 61 -16 75 -3 14 -7 36 -10 50 -17 80 -16 87 9 87 10 0
18 -13 22 -36z"/>
<path d="M596 734 c-3 -9 -6 -36 -6 -60 0 -42 1 -44 29 -44 39 0 43 16 14 73
-26 52 -28 54 -37 31z"/>
<path d="M699 428 c0 -7 -2 -34 -5 -60 -4 -47 -3 -48 25 -48 41 0 45 12 21 64
-21 47 -40 67 -41 44z"/>
</g>
</svg>
